name D:\school\WTK\thesis\model\3dpredictsim\Results\tmt_lin\Pog_s1_tmt_bCst_d00_k1000_ig24_act_v4.mot
datacolumns 128
datarows 4
range 0.00000000 0.04784173
endheader
time	pelvis_tilt	pelvis_list	pelvis_rotation	pelvis_tx	pelvis_ty	pelvis_tz	hip_flexion_l	hip_adduction_l	hip_rotation_l	hip_flexion_r	hip_adduction_r	hip_rotation_r	knee_angle_l	knee_angle_r	ankle_angle_l	ankle_angle_r	subtalar_angle_l	subtalar_angle_r	tmt_angle_l	tmt_angle_r	mtp_angle_l	mtp_angle_r	lumbar_extension	lumbar_bending	lumbar_rotation	arm_flex_l	arm_add_l	arm_rot_l	arm_flex_r	arm_add_r	arm_rot_r	elbow_flex_l	elbow_flex_r	pro_sup_l	pro_sup_r	glut_med1_l/activation	glut_med2_l/activation	glut_med3_l/activation	glut_min1_l/activation	glut_min2_l/activation	glut_min3_l/activation	semimem_l/activation	semiten_l/activation	bifemlh_l/activation	bifemsh_l/activation	sar_l/activation	add_long_l/activation	add_brev_l/activation	add_mag1_l/activation	add_mag2_l/activation	add_mag3_l/activation	tfl_l/activation	pect_l/activation	grac_l/activation	glut_max1_l/activation	glut_max2_l/activation	glut_max3_l/activation	iliacus_l/activation	psoas_l/activation	quad_fem_l/activation	gem_l/activation	peri_l/activation	rect_fem_l/activation	vas_med_l/activation	vas_int_l/activation	vas_lat_l/activation	med_gas_l/activation	lat_gas_l/activation	soleus_l/activation	tib_post_l/activation	flex_dig_l/activation	flex_hal_l/activation	tib_ant_l/activation	per_brev_l/activation	per_long_l/activation	per_tert_l/activation	ext_dig_l/activation	ext_hal_l/activation	ercspn_l/activation	intobl_l/activation	extobl_l/activation	glut_med1_r/activation	glut_med2_r/activation	glut_med3_r/activation	glut_min1_r/activation	glut_min2_r/activation	glut_min3_r/activation	semimem_r/activation	semiten_r/activation	bifemlh_r/activation	bifemsh_r/activation	sar_r/activation	add_long_r/activation	add_brev_r/activation	add_mag1_r/activation	add_mag2_r/activation	add_mag3_r/activation	tfl_r/activation	pect_r/activation	grac_r/activation	glut_max1_r/activation	glut_max2_r/activation	glut_max3_r/activation	iliacus_r/activation	psoas_r/activation	quad_fem_r/activation	gem_r/activation	peri_r/activation	rect_fem_r/activation	vas_med_r/activation	vas_int_r/activation	vas_lat_r/activation	med_gas_r/activation	lat_gas_r/activation	soleus_r/activation	tib_post_r/activation	flex_dig_r/activation	flex_hal_r/activation	tib_ant_r/activation	per_brev_r/activation	per_long_r/activation	per_tert_r/activation	ext_dig_r/activation	ext_hal_r/activation	ercspn_r/activation	intobl_r/activation	extobl_r/activation	
          0.00000000	         -2.79353885	         -2.13119513	         11.29082167	          0.00000000	          0.80859665	         -0.00313480	        -24.60096215	         -7.25999064	          4.20687965	         40.07001935	         -0.81305945	         -1.84576386	        -14.55468174	        -13.19846864	         -8.63350472	         10.14938013	         20.87956878	         -8.26261206	         -0.58387304	          0.02405570	         35.48856807	         -0.02662565	          0.48856836	         -1.26399555	         -0.64693440	         -0.76461772	        -13.67400590	         13.58574520	          7.38412199	        -13.83337639	         13.62398867	          8.35057647	         18.50583446	         86.51662706	         86.51662706	          0.10930384	          0.06328944	          0.06328957	          0.18624751	          0.08005777	          0.06330081	          0.05000052	          0.05000006	          0.05000008	          0.05000077	          0.08128093	          0.20320131	          0.05000034	          0.05000035	          0.05000037	          0.05000012	          0.17907782	          0.12306296	          0.06328998	          0.05007378	          0.05001020	          0.05000153	          0.50604547	          0.64046589	          0.09882354	          0.06329670	          0.08011226	          0.40798156	          0.09372524	          0.09486367	          0.08519246	          0.15501140	          0.23445179	          0.05000000	          0.19147308	          0.26096017	          0.25005788	          0.05000002	          0.51282706	          0.39428769	          0.05000010	          0.32778140	          0.05000013	          0.05099784	          0.05425330	          0.06328935	          0.05000372	          0.05000009	          0.54501735	          0.08011151	          0.05000035	          0.05000020	          0.11971621	          0.13059424	          0.11481320	          0.14878659	          0.08011047	          0.08011103	          0.10282987	          0.17662769	          0.08156375	          0.23030802	          0.05673099	          0.06817323	          0.20437981	          0.05000006	          0.05000005	          0.26280078	          0.10788795	          0.10044381	          0.17487735	          0.23991316	          0.41489487	          0.05000006	          0.05000002	          0.05000002	          0.05000002	          0.06328949	          0.06328979	          0.06328932	          0.05000040	          0.05000041	          0.05000069	          0.53067260	          0.44054779	          0.28701123	          0.33600644	          0.63625209	          0.37762958	          0.05000003	          0.20321127	          0.12835509	
          0.01594724	         -2.84135247	         -2.22335282	         11.74602152	          0.02875229	          0.80578351	         -0.00273173	        -25.23656021	         -8.10757068	          4.40927438	         39.81831343	         -0.54332431	         -1.93367806	        -15.05516671	        -15.80213034	        -14.48497073	          8.61637269	         21.65933508	         -8.76457256	         -0.97900663	         -0.01267788	         37.67654005	         -0.17711915	          0.78969577	         -0.80675831	         -0.82093339	         -0.82629361	        -13.78587805	         14.21609858	          5.15069130	        -13.86103329	         13.30588335	          8.22678573	         17.23975717	         86.51662706	         86.51662706	          0.09074583	          0.05000009	          0.05000017	          0.14713973	          0.06324750	          0.05000909	          0.05000344	          0.05000036	          0.05000034	          0.05000036	          0.06421384	          0.16053375	          0.05000572	          0.12082693	          0.05000075	          0.06113548	          0.14147551	          0.09722264	          0.05000061	          0.05000068	          0.05000043	          0.05000029	          0.39978713	          0.62717502	          0.07807280	          0.05000586	          0.06329049	          0.37843703	          0.12835375	          0.12835390	          0.11729240	          0.12246243	          0.18522210	          0.05000000	          0.15126797	          0.20616433	          0.19755127	          0.21214275	          0.51782392	          0.36220064	          0.53953897	          0.62685540	          0.26923465	          0.13333399	          0.05000000	          0.05000002	          0.24225214	          0.46308266	          0.71966110	          0.06329023	          0.26537531	          0.38918814	          0.09457845	          0.10317237	          0.09070498	          0.11754470	          0.06328908	          0.06328950	          0.08123789	          0.15059471	          0.22788935	          0.25517371	          0.05000004	          0.05385852	          0.16146462	          0.33066331	          0.28088944	          0.33684588	          0.08523387	          0.07935284	          0.44394835	          0.18953683	          0.32777624	          0.05000003	          0.06150169	          0.10587233	          0.11673466	          0.05000010	          0.05000034	          0.05000000	          0.05000002	          0.06328503	          0.05000342	          0.77251875	          0.61851663	          0.32867673	          0.67816499	          0.79658586	          0.63551650	          0.06477195	          0.16054140	          0.10140336	
          0.03189449	         -2.87981431	         -2.34776702	         12.13456283	          0.05646865	          0.80363787	         -0.00222760	        -25.36254257	         -8.93017562	          4.64095631	         39.89468177	         -0.21914855	         -2.04561339	        -16.21952071	        -18.75284021	        -19.73707469	          6.81400447	         22.36947893	         -9.27603082	         -1.15076170	         -0.03398667	         36.74024913	         -0.26496970	          0.96896253	         -0.28341506	         -0.98456106	         -0.76929981	        -13.84233353	         14.81771376	          3.05057874	        -13.85440678	         13.15788724	          8.16556537	         15.92842471	         86.51662706	         86.51662706	          0.07169186	          0.05000245	          0.05623967	          0.11624371	          0.05000139	          0.05000129	          0.05000080	          0.05000005	          0.05000011	          0.05000003	          0.05073048	          0.12682530	          0.08755454	          0.09545635	          0.21426218	          0.10086286	          0.11176885	          0.07680825	          0.05000016	          0.05001143	          0.05002084	          0.05004376	          0.31584069	          0.49548246	          0.06167935	          0.05000382	          0.05000112	          0.29897363	          0.10140332	          0.10140332	          0.10140332	          0.09674803	          0.14632957	          0.05000002	          0.11950505	          0.16287442	          0.15606990	          0.19916751	          0.40909258	          0.29814462	          0.47026393	          0.81913834	          0.21270137	          0.20699034	          0.05000000	          0.05000001	          0.30830111	          0.54412057	          0.74352425	          0.05000126	          0.20965257	          0.30746771	          0.07471907	          0.08150848	          0.07165895	          0.09286292	          0.05000013	          0.05000018	          0.06417979	          0.20283141	          0.25066017	          0.27574027	          0.08011170	          0.05000067	          0.12756068	          0.38763695	          0.35678713	          0.37927674	          0.06733665	          0.06269051	          0.45353385	          0.14973844	          0.25895061	          0.05000007	          0.18245074	          0.26751814	          0.25000631	          0.05000000	          0.05000001	          0.05000000	          0.05000000	          0.05000025	          0.05000014	          0.83205256	          0.52298694	          0.27772737	          0.82195370	          0.88839185	          0.51551539	          0.11426225	          0.12683126	          0.08011090	
          0.04784173	         -2.90640966	         -2.49270284	         12.46317131	          0.08298197	          0.80264001	         -0.00162181	        -24.96037907	         -9.71817113	          4.89761864	         40.15423877	          0.16792009	         -2.14056513	        -18.09864820	        -21.89124310	        -24.01867636	          5.29673418	         22.89656852	         -9.86539803	         -1.21951359	         -0.03732527	         32.10768789	         -0.35720591	          1.05522007	          0.27406772	         -1.13987663	         -0.59880770	        -13.83763231	         15.35531902	          1.10621140	        -13.79778901	         13.20530464	          8.23009943	         14.58111358	         86.51662706	         86.51662706	          0.05663927	          0.05000005	          0.05000002	          0.09183519	          0.05000042	          0.05000017	          0.05000039	          0.05000005	          0.05000008	          0.05000002	          0.05000024	          0.15746434	          0.17012462	          0.10895639	          0.16927205	          0.09760850	          0.08829992	          0.07296647	          0.05000019	          0.05000084	          0.05000048	          0.05000028	          0.24952114	          0.39144220	          0.05000005	          0.05000031	          0.05000007	          0.23619578	          0.08011087	          0.08011087	          0.08011087	          0.07643309	          0.11560363	          0.05000001	          0.09441164	          0.12867445	          0.12329873	          0.27654290	          0.39598291	          0.28043767	          0.38219065	          0.86284266	          0.16803884	          0.24333764	          0.05000000	          0.05000001	          0.33899501	          0.52309366	          0.75314528	          0.05002657	          0.16563040	          0.24290663	          0.05902974	          0.06439355	          0.05661222	          0.07336377	          0.05000079	          0.05006282	          0.05070359	          0.16024242	          0.29195259	          0.31873421	          0.06329005	          0.05001124	          0.10077585	          0.43127039	          0.43326167	          0.44841291	          0.05319748	          0.05000011	          0.35830277	          0.11829687	          0.27256263	          0.05000011	          0.28032794	          0.21361136	          0.36996598	          0.05000005	          0.05000022	          0.05000002	          0.08976683	          0.05000071	          0.05000071	          0.90345479	          0.41317126	          0.21941078	          0.64936163	          0.70184927	          0.40726863	          0.13898889	          0.10019950	          0.06328938	
